<svg xmlns="http://www.w3.org/2000/svg" viewBox="0 0 512 512"><defs><linearGradient id="g" x1="0" x2="1" y1="0" y2="1"><stop stop-color="#00bcd4"/><stop offset=".58" stop-color="#00a7c8"/><stop offset="1" stop-color="#ffd166"/></linearGradient></defs><rect width="512" height="512" rx="112" fill="url(#g)"/><circle cx="350" cy="148" r="70" fill="#ffe08a"/><path d="M48 342c60-42 118-42 178 0s118 42 178 0 118-42 178 0v112H48z" fill="#9ee8ff" opacity=".95"/><path d="M48 394c60-32 118-32 178 0s118 32 178 0 118-32 178 0v78H48z" fill="#fff" opacity=".9"/><path d="M151 232c-10-58 35-109 96-109 46 0 84 31 94 74 40 4 72 37 72 78 0 43-35 78-78 78H173c-37 0-67-30-67-67 0-29 19-51 45-54z" fill="#fff"/></svg>