<svg xmlns="http://www.w3.org/2000/svg" viewBox="0 0 128 128"><defs><linearGradient id="c" x1="0" y1="0" x2="0" y2="1"><stop stop-color="#f8fbff"/><stop offset="1" stop-color="#cbd7e6"/></linearGradient></defs><path d="M29 73h61c17 0 29-11 29-25 0-15-12-25-28-25-7-16-23-26-41-22-15 3-26 15-29 30C8 34-1 43-1 55c0 11 12 18 30 18z" fill="url(#c)" stroke="#b8c6d7" stroke-width="4" transform="translate(5 14)"/><g fill="#22a8ff"><path d="M39 96c0 9-7 16-13 16s-9-7-5-15l12-22 6 21z"/><path d="M72 100c0 9-7 16-13 16s-9-7-5-15l12-22 6 21z"/><path d="M102 94c0 8-6 14-12 14s-8-6-5-13l11-19 6 18z"/></g></svg>